<svg xmlns="http://www.w3.org/2000/svg" viewBox="0 0 476.07 88.28"><defs><style>.cls-1{fill:#231f20;}.cls-2{fill:#ee3129;}</style></defs><g id="Layer_2" data-name="Layer 2"><g id="Layer_1-2" data-name="Layer 1"><path class="cls-1" d="M262.46,48.83l-7.14-6.95a2.24,2.24,0,0,0-1.79-.25L241,44.54V32.74h22a.69.69,0,0,0,.69-.69V30.29a.69.69,0,0,0-.69-.7H192.92a.69.69,0,0,0-.69.7v1.76a.69.69,0,0,0,.69.69h33.44L192.48,57a1,1,0,0,0-.19,1.19L197,67.16a1.16,1.16,0,0,0,1,.46s16.23,3.13,27,10.53a20.45,20.45,0,0,0,8.43,3.74l6.69.37s.8.22,1-.88V58.65C243,58,246.3,56.93,246.76,57l.09,0a.68.68,0,0,1,.41.79V76.78c0,1.13.31,1.3.31,1.3A20.59,20.59,0,0,0,256,81.82l6.69.37s.8.22,1-.88v-30l-.14-.78a6.28,6.28,0,0,0-1.12-1.73M226.15,62.07s-2.17-2.24-9.4-5.15l9.4-6.55Z"/><path class="cls-1" d="M212.58,73.51a6.75,6.75,0,1,0,6.69,6.75,6.72,6.72,0,0,0-6.69-6.75"/><path class="cls-1" d="M442.23,73.51a6.75,6.75,0,1,0,6.7,6.75,6.71,6.71,0,0,0-6.7-6.75"/><path class="cls-1" d="M475.38,29.59H354.72V26.38l-.13.11a22.29,22.29,0,0,1-10.73,3.1H329.2V26.38l-.13.11A22.22,22.22,0,0,1,318,29.59h-5.39V34C282.7,15,264,40.9,264,40.9a3.22,3.22,0,0,0-.39,3.63l7,8.43c.4.53.79.41.79.41a5.8,5.8,0,0,1,2.69-.2c9,1.65,5.71,10.92,5.71,10.92a2.35,2.35,0,0,0,.62,2.49L289,72a2.35,2.35,0,0,0,1.76.2l21.67-19,.3-.26V75.28c0,1.1.31,1.27.31,1.27a20.12,20.12,0,0,0,8.27,3.67l6.94.36s.78.22,1-.86v-47h8.93c0,26.07.07,42.55.07,42.55,0,1.1.31,1.27.31,1.27a20.12,20.12,0,0,0,8.27,3.67l6.94.36s.78.22,1-.86v-47h39.06c5.93,3.3,7.24,7.82,6.8,11.82-8.57-5.8-27-13.38-37.45-3.55s1,26.51,12.19,20.93c6.91-4.51,8.12-4.66,5.38-5.39,0,0-4-2.45-.91-5.28,0,0,4.28-3.77,10,1.41-11.59,10.61,2.67,25.72,14.52,14.25-2.06.42-3.6-2.66-.25-3.68,4.4-1.35,7.11,7,1.31,10.17-12.62,7-24.15-4-24.15-4a1.66,1.66,0,0,0-2.15-.09c-11.25,6.06-14.54,7.49-13.28,8.12C384.23,95,426.6,91.75,421.54,63.66A18.23,18.23,0,0,0,415,53c3-10.86-.16-17.74-1.74-20.26h42.59L422.13,57a1,1,0,0,0-.19,1.19l4.66,8.94a1.17,1.17,0,0,0,1,.46s16.23,3.13,27,10.53A20.45,20.45,0,0,0,463,81.89l6.69.37s.79.22,1-.88V32.73h4.7a.69.69,0,0,0,.69-.69V30.29a.7.7,0,0,0-.69-.7M292.9,51.84a15.35,15.35,0,0,0-7.24-9.25c8.15-5.5,16.18,1.7,16.18,1.7ZM455.78,62.07s-2.17-2.24-9.4-5.15l9.4-6.55Z"/><path class="cls-1" d="M163.45,26.67a19.05,19.05,0,0,1-11.12,3H139.49l-1.28,0c-3.13,0-7.52.48-7.52.48C120.33,32,115.22,40.76,114.24,43.81c-5.66-12.61-21.69-14-29.61-14.09H28.53c-42.53.13-28.31,52-15.68,51H35.09c-25.43-11.28-16.6-47-2.2-47.89.18,0,.35,0,.52,0V66.22c0,1.9-.08,2.5,2,3.11l9,3.84c1.72.48,1.93.68,3.58-.79,5.24-6.19,10.74-10.56,13-11.66a77.74,77.74,0,0,0,.25,15.44l0,.15c.09.41.24.49.24.49,5.78,4,8.68,3.54,15.45,3.91,0,0,.7.19.94-.71l0-.37c.28-3.38-1.66-17.22,5-30.23.6-1.7.29-2.62-.33-3.23L75,38.9a3.41,3.41,0,0,0-3.5-1,51.81,51.81,0,0,0-19.84,7.68V32.78H84.58C93.8,33,98.81,36.6,98.81,36.6c6.4,5,4,13.73-2.79,16.58a25.28,25.28,0,0,1-10.71,1.44A56.83,56.83,0,0,0,86.71,61c3.38,8.89,8.14,9.37,9.89,9.49s10.47-2.4,10.47-2.4c6.64-2.52,7.45-10.33,7.45-12.61,0,2.28.82,10.09,7.45,12.61,0,0,8.73,2.52,10.47,2.4s6.52-.6,9.89-9.49a56.83,56.83,0,0,0,1.4-6.36A25.28,25.28,0,0,1,133,53.18c-6.78-2.85-9.19-11.53-2.79-16.58a17.06,17.06,0,0,1,8-3.57,20.52,20.52,0,0,1,2.5-.27H147V75.44c0,1.09.31,1.26.31,1.26,5.88,4,8.45,3.64,15.24,4,0,0,.78.21,1-.86V26.56Z"/><path class="cls-2" d="M345.81,9.64a4.71,4.71,0,0,0-.82.26c-.32.12-.63.27-1,.43s-.62.34-.89.52a6,6,0,0,0-.66.46,6,6,0,0,1,1,.45,4.28,4.28,0,0,1,.87.65,6.28,6.28,0,0,1,.81.93,6.54,6.54,0,0,1,.66,1.1Zm1.45-2.87v.77a3.75,3.75,0,0,1,1.37.27,4.15,4.15,0,0,1,1.24.79,3.78,3.78,0,0,1,.9,1.25,3.85,3.85,0,0,1,.34,1.66,2.89,2.89,0,0,1-.47,1.68,1.55,1.55,0,0,1-2.31.34,1.19,1.19,0,0,1-.42-.95,1.45,1.45,0,0,1,.34-.92,1.06,1.06,0,0,1,.85-.42,1.41,1.41,0,0,1,.71.21,1.23,1.23,0,0,1,.51.5.57.57,0,0,0,.09-.16.54.54,0,0,0,0-.22,1.41,1.41,0,0,0-.25-.78,2.67,2.67,0,0,0-.66-.69,3.72,3.72,0,0,0-1-.49,4.38,4.38,0,0,0-1.27-.19v7.94l-.62-.48a4.18,4.18,0,0,0-.43-1.07,5.53,5.53,0,0,0-.84-1.17,5.83,5.83,0,0,0-1.68-1.26,5.92,5.92,0,0,0-2.18-.58l-1.71-2.13a27.09,27.09,0,0,1,3.35-2.15,8.29,8.29,0,0,1,2.66-1V6.77h-6.66l-1.41-1.33H351l1.36,1.33Z"/><path class="cls-2" d="M328.56,6.77V17.4l-.63-.61c0-.22-.07-.44-.12-.67s-.11-.47-.18-.72-.15-.54-.25-.85l-.35-1a5.2,5.2,0,0,0-1.43-2.3,2.75,2.75,0,0,0-1.77-.7v0a1.44,1.44,0,0,1,.64.63,1.85,1.85,0,0,1,.21.86,1.5,1.5,0,0,1-.55,1.24,1.92,1.92,0,0,1-1.27.45,2.19,2.19,0,0,1-.75-.13,1.77,1.77,0,0,1-.68-.42,2.19,2.19,0,0,1-.49-.71,2.55,2.55,0,0,1-.18-1,2.4,2.4,0,0,1,.69-1.75,2.53,2.53,0,0,1,1.9-.7,3.7,3.7,0,0,1,1,.17,3.3,3.3,0,0,1,1.05.6,4.53,4.53,0,0,1,1,1.12,6.28,6.28,0,0,1,.7,1.46V6.77h-7.38l-1.36-1.33h10.85l1.34,1.33Z"/><path class="cls-2" d="M318.9,17.36,317.45,16V6.77h-1.91l-1.23-1.33h3.21a8.65,8.65,0,0,1-.79-.86,1.81,1.81,0,0,1-.51-1.18,3,3,0,0,1,1.25-2.24A4.85,4.85,0,0,1,320.65,0,8,8,0,0,1,324,.83a9.66,9.66,0,0,1,3.64,2.9v.74q-2.85-3-5.85-3A3.84,3.84,0,0,0,319,2.65a2.8,2.8,0,0,0-1,1.91,1,1,0,0,0,.59.88h1.41L321,6.77H318.9Z"/><path class="cls-2" d="M299.89,6.77v4.58l.05-.08a4.72,4.72,0,0,1,.67-1c.28-.34.6-.68.94-1a7.15,7.15,0,0,1,1.19-.94c.46-.3.87-.55,1.23-.77a7.6,7.6,0,0,1,1.2.76,10.61,10.61,0,0,1,1.1.95,4.36,4.36,0,0,0-.89,1,6.81,6.81,0,0,0-.6,1.21,6.67,6.67,0,0,0-.35,1.31,8.2,8.2,0,0,0-.11,1.28,10.22,10.22,0,0,0,.13,1.42c.09.62.21,1.28.38,2l-.88-.73a19,19,0,0,1-.66-2.39,9.66,9.66,0,0,1-.2-1.77,7.3,7.3,0,0,1,.11-1.06,4.6,4.6,0,0,1,.44-1.31l-.11.07a7.4,7.4,0,0,0-2.18,2.13,9.42,9.42,0,0,0-1.1,2.3,5.89,5.89,0,0,1-1-.8,5.23,5.23,0,0,1-.81-1V6.77h-1.38l-1.34-1.33h10.15l1.33,1.33Z"/><path class="cls-2" d="M296.74,5.44h.92V6.77a4.19,4.19,0,0,0-3.42,1.69,7.73,7.73,0,0,0-1.42,4.93,3.68,3.68,0,0,0,.63,2.28,1.26,1.26,0,0,0,1,.66,1.5,1.5,0,0,0,.52-.09,1.12,1.12,0,0,1-.39-.9,1.17,1.17,0,0,1,.33-.82,1.16,1.16,0,0,1,.92-.36,1.5,1.5,0,0,1,.94.35,1.36,1.36,0,0,1,.44,1.12,1.52,1.52,0,0,1-.55,1.22,2,2,0,0,1-1.34.46,3.28,3.28,0,0,1-2.72-1.46,6.72,6.72,0,0,1-1.2-4.17,7.21,7.21,0,0,1,1.47-4.75,3.66,3.66,0,0,1,2.93-1.49h.09a2.48,2.48,0,0,0,.07-.53c0-.45-.41-.68-1.23-.68a7,7,0,0,0-.93.08,8.82,8.82,0,0,1-1.2.07,3.28,3.28,0,0,1-2.32-.69,2.34,2.34,0,0,1-.72-1.76A2,2,0,0,1,290,.61l.59.33a1,1,0,0,0-.35.39,1,1,0,0,0-.13.36c0,.73.54,1.09,1.62,1.09a7,7,0,0,0,.86-.08,6.86,6.86,0,0,1,1.12-.09,2.72,2.72,0,0,1,2.14.76,4.39,4.39,0,0,1,.86,2.07"/><path class="cls-2" d="M268.4,9.64a7.78,7.78,0,0,0-1.73.62,13.33,13.33,0,0,0-1.86,1.07,4.6,4.6,0,0,1,.88.31,3.87,3.87,0,0,1,.87.56,7.46,7.46,0,0,1,.89.89,15.62,15.62,0,0,1,.95,1.31Zm-1.91,5.57a1.14,1.14,0,0,1-.32.8,1.15,1.15,0,0,1-1.63,0,1.11,1.11,0,0,1-.33-.8,1.14,1.14,0,0,1,.33-.82,1.15,1.15,0,0,1,1.63,0,1.17,1.17,0,0,1,.32.82m3.36-8.44V17.36l-.62-.48a5.73,5.73,0,0,0-.63-1.3,7.77,7.77,0,0,0-1.23-1.42,4.85,4.85,0,0,0-1.57-1,5.15,5.15,0,0,0-2-.38l-1.65-2.06a27.22,27.22,0,0,1,3.44-2.18,9.33,9.33,0,0,1,2.83-1v-.7h-6.88l-1.25-1.33h10.32l1.23,1.33Z"/><path class="cls-2" d="M245.85,6.77v4.58l0-.08a5.14,5.14,0,0,1,.67-1c.29-.34.6-.68.94-1a7.68,7.68,0,0,1,1.2-.94c.45-.3.86-.55,1.23-.77a7.54,7.54,0,0,1,1.19.76,9.8,9.8,0,0,1,1.11.95,4.14,4.14,0,0,0-.89,1,6.81,6.81,0,0,0-.6,1.21,6.67,6.67,0,0,0-.35,1.31,7.14,7.14,0,0,0-.11,1.28,10.22,10.22,0,0,0,.13,1.42c.09.62.21,1.28.37,2l-.88-.73a20.64,20.64,0,0,1-.65-2.39,9.66,9.66,0,0,1-.2-1.77,7.3,7.3,0,0,1,.11-1.06,4.31,4.31,0,0,1,.44-1.31l-.11.07a7.28,7.28,0,0,0-2.18,2.13,9.12,9.12,0,0,0-1.11,2.3,5.89,5.89,0,0,1-1-.8,5.23,5.23,0,0,1-.81-1V6.77H243l-1.33-1.33h10.14l1.34,1.33Z"/><path class="cls-2" d="M241.53,17.31a3.29,3.29,0,0,1-2.72-1.46,6.72,6.72,0,0,1-1.2-4.17,7.2,7.2,0,0,1,1.47-4.75A3.66,3.66,0,0,1,242,5.44h1.89V6.77a4.16,4.16,0,0,0-3.42,1.69,7.73,7.73,0,0,0-1.42,4.93,3.68,3.68,0,0,0,.63,2.28,1.26,1.26,0,0,0,1,.66,1.46,1.46,0,0,0,.52-.09,1.12,1.12,0,0,1-.39-.9,1.19,1.19,0,0,1,.33-.82,1.16,1.16,0,0,1,.92-.36,1.5,1.5,0,0,1,.94.35,1.36,1.36,0,0,1,.44,1.12,1.52,1.52,0,0,1-.55,1.22,2,2,0,0,1-1.34.46"/><path class="cls-2" d="M226,6.77V17.36L224.5,16v-5a2.94,2.94,0,0,0-.72-1.1,1.14,1.14,0,0,0-.61-.26.76.76,0,0,0-.68.36,1.65,1.65,0,0,0-.24.93,1.28,1.28,0,0,0,0,.26c0,.11,0,.24.06.42l-.61-.37a2.54,2.54,0,0,0-.79-1.1,2.13,2.13,0,0,0-1.34-.39,2.5,2.5,0,0,0-.85.15,2.31,2.31,0,0,0-.74.44,2.14,2.14,0,0,0-.5.66,1.88,1.88,0,0,0-.19.83,1.42,1.42,0,0,0,.39,1.05,1.06,1.06,0,0,0,.75.4h.19l.16,0a1.3,1.3,0,0,1-.37-.46,1.1,1.1,0,0,1-.11-.44,1.33,1.33,0,0,1,.37-.93,1.37,1.37,0,0,1,1-.38,1.35,1.35,0,0,1,1.09.48,1.74,1.74,0,0,1,.4,1.16,1.58,1.58,0,0,1-.5,1.15,2.12,2.12,0,0,1-1.53.5,3.28,3.28,0,0,1-1.3-.26,2.93,2.93,0,0,1-1-.71,3.43,3.43,0,0,1-.69-1.1,3.63,3.63,0,0,1-.25-1.37,2.9,2.9,0,0,1,.26-1.22,3.18,3.18,0,0,1,.69-.95,3.29,3.29,0,0,1,1-.62,2.84,2.84,0,0,1,1.07-.22,2,2,0,0,1,1.22.4A3.48,3.48,0,0,1,221,9.31a3.06,3.06,0,0,1,.62-1.17,1.19,1.19,0,0,1,.85-.29,1.43,1.43,0,0,1,1,.47,5.34,5.34,0,0,1,1,1.63V6.77h-9.27l-1.31-1.33h12.69l1.22,1.33Z"/><path class="cls-2" d="M203,5.44a3.9,3.9,0,0,0-.09-.79,4.23,4.23,0,0,0-.7-1.56Q200.89,1.27,197,1.27a7,7,0,0,0-2.45.31c-.46.19-.68.41-.68.66s.27.35.83.35a17.61,17.61,0,0,0,1.93-.16l.44,0a3.26,3.26,0,0,1,2.2.69,4.15,4.15,0,0,1,1.15,2.34Zm1.4,11.92L202.94,16V6.77h-1.32l-.88-.94a.65.65,0,0,0-.35-.23,5.23,5.23,0,0,0-1.18-.08V5.44a.75.75,0,0,0,.33-.62.63.63,0,0,0-.26-.55,1.92,1.92,0,0,0-.95-.17c-.24,0-.78,0-1.62.11l-.41,0A3.67,3.67,0,0,1,194,3.65a1.8,1.8,0,0,1-.76-1.5A1.75,1.75,0,0,1,194.34.57a6.41,6.41,0,0,1,3-.57,7.42,7.42,0,0,1,4.49,1.34,6.42,6.42,0,0,1,2.4,4.1h1.25l1,1.33h-2Z"/><path class="cls-2" d="M199.23,9.67a2.39,2.39,0,0,0-.22-.73,3.15,3.15,0,0,0-.48-.8,2.78,2.78,0,0,0-.6-.55,1,1,0,0,0-.54-.2.81.81,0,0,0-.49.14,2.87,2.87,0,0,0-.58.67,5.23,5.23,0,0,1,1.4,1.19,1.8,1.8,0,0,1,.39,1,1.55,1.55,0,0,1-.47,1.21,1.81,1.81,0,0,1-1.28.44,1.37,1.37,0,0,1-.89-.38,2.45,2.45,0,0,1-.66-1.22h-.16A2.13,2.13,0,0,1,194,11.7a1.49,1.49,0,0,1-1,.4,1.8,1.8,0,0,1-1.26-.45,1.54,1.54,0,0,1-.49-1.2,3,3,0,0,1,0-.48,1.54,1.54,0,0,1,.28-.56,4.48,4.48,0,0,1,.62-.65,7.33,7.33,0,0,1,1.11-.8,1.48,1.48,0,0,0-.66-.9,2.32,2.32,0,0,0-1.2-.29h-1l-.85-1.33h1.58a4.65,4.65,0,0,1,1,.08,2.23,2.23,0,0,1,.76.32,2.52,2.52,0,0,1,.61.61,5.22,5.22,0,0,1,.51,1c.31-.41.59-.74.83-1a6.55,6.55,0,0,1,.65-.6,1.58,1.58,0,0,1,.52-.28,1.24,1.24,0,0,1,.39-.07,1.66,1.66,0,0,1,.56.1,2,2,0,0,1,.63.35,5,5,0,0,1,.7.69,11.4,11.4,0,0,1,.85,1.27V3.27l.68.63a2.19,2.19,0,0,0,.36,1.18,1.15,1.15,0,0,0,.94.36l1.35,1.33h-1.14a.76.76,0,0,1-.7-.28l0,0V17.36L199.23,16Z"/><path class="cls-2" d="M178.17,16.92l-.69.33-.76.4-.71.41-.58.35a3.92,3.92,0,0,1,1.57.84,5.68,5.68,0,0,1,1.17,1.44Zm.66,5.41a2.44,2.44,0,0,0-.49-1,4.49,4.49,0,0,0-1-.87,5.25,5.25,0,0,0-1.26-.61,4.53,4.53,0,0,0-1.41-.23l-1.6-2a29.93,29.93,0,0,1,6.51-3.25V23Z"/><path class="cls-2" d="M180.39,12a5.18,5.18,0,0,1-.26,1.67,3.76,3.76,0,0,1-.71,1.31,3.16,3.16,0,0,1-1.13.84,3.59,3.59,0,0,1-1.5.3,4.69,4.69,0,0,1-1.91-.43,5.39,5.39,0,0,1-1.81-1.46,11.82,11.82,0,0,1-1.67-2.72A22.35,22.35,0,0,1,170,7.26l.72.48A22.2,22.2,0,0,0,172,10.62a8.69,8.69,0,0,0,1.35,1.88,4.2,4.2,0,0,0,1.48,1,4.38,4.38,0,0,0,1.66.31,2.86,2.86,0,0,0,1.14-.22,3,3,0,0,0,.91-.59,2.94,2.94,0,0,0,.6-.87,2.52,2.52,0,0,0,.22-1.06,2.13,2.13,0,0,0-.25-1.13,2,2,0,0,0-.57-.62,1.68,1.68,0,0,0-.6-.28L177.62,9a1.74,1.74,0,0,0-.59.15,1.47,1.47,0,0,1,.62,1.27,1.64,1.64,0,0,1-.51,1.22,1.73,1.73,0,0,1-1.27.49,1.81,1.81,0,0,1-1.37-.58,2.18,2.18,0,0,1-.56-1.57,2.4,2.4,0,0,1,.69-1.75,2.53,2.53,0,0,1,1.9-.7,3.53,3.53,0,0,1,1.43.3,3.56,3.56,0,0,1,1.23.86,4.33,4.33,0,0,1,.87,1.39,5,5,0,0,1,.33,1.88m-11-5.2-1.36-1.33h12.84l1.34,1.33Z"/><path class="cls-2" d="M157.44,6.77h-3.75c.18.18.38.39.63.63s.49.49.74.76.5.55.75.84.46.56.66.82q-.57.43-1.23,1a13.59,13.59,0,0,0-1.11,1,2.9,2.9,0,0,1,1.54.75,7.13,7.13,0,0,1,1.77,2.08Zm-1.91,8.75a1.13,1.13,0,0,1-.33.8,1.13,1.13,0,0,1-1.62,0,1.16,1.16,0,0,1,0-1.62,1.13,1.13,0,0,1,1.62,0,1.12,1.12,0,0,1,.33.82m3.36-8.75V17.36l-.6-.53a3.49,3.49,0,0,0-.51-1.26,4.56,4.56,0,0,0-1.08-1.17,5.85,5.85,0,0,0-1.56-.87,5.62,5.62,0,0,0-1.95-.34l-1.71-2.08c.42-.42.9-.86,1.44-1.31l1.47-1.23a2.38,2.38,0,0,0-1.69-.7c-1.24,0-1.86-.37-1.86-1.1h-.44L149,5.44h10.41l1.34,1.33Z"/><path class="cls-2" d="M149.57,17.36,148.13,16V6.77h-1.91L145,5.44h3.2a10.17,10.17,0,0,1-.79-.86,1.85,1.85,0,0,1-.5-1.18,2.94,2.94,0,0,1,1.25-2.24A4.85,4.85,0,0,1,151.33,0a8,8,0,0,1,3.3.81,9.58,9.58,0,0,1,3.64,2.9v.74q-2.85-3-5.85-3a3.82,3.82,0,0,0-2.78,1.14,2.76,2.76,0,0,0-1,1.91,1,1,0,0,0,.59.88h1.4l1.1,1.33h-2.13Z"/><path class="cls-2" d="M131.77,6.77l-1.09-1.33h1.75a2,2,0,0,1,.77.4,2.51,2.51,0,0,1,.7.88,4.44,4.44,0,0,1,.37.91V3.27l.68.63a2.19,2.19,0,0,0,.36,1.18.91.91,0,0,0,.72.36l1.36,1.33h-1.14a.55.55,0,0,1-.49-.28l0,0V17.36L134.27,16V8.81a2.46,2.46,0,0,0-.17-.73,2,2,0,0,0-.41-.68,1.91,1.91,0,0,0-.62-.45,2.45,2.45,0,0,0-.64-.18Z"/><path class="cls-2" d="M126.56,6.77v4.58l0-.08a5.14,5.14,0,0,1,.67-1c.29-.34.6-.68.94-1a7.24,7.24,0,0,1,1.2-.94c.45-.3.86-.55,1.22-.77a7.17,7.17,0,0,1,1.2.76,10.76,10.76,0,0,1,1.11.95,4.14,4.14,0,0,0-.89,1,6.81,6.81,0,0,0-.6,1.21,6,6,0,0,0-.35,1.31,7.14,7.14,0,0,0-.11,1.28,10.22,10.22,0,0,0,.13,1.42c.09.62.21,1.28.37,2l-.88-.73a20.64,20.64,0,0,1-.65-2.39,8.86,8.86,0,0,1-.2-1.77,7.3,7.3,0,0,1,.11-1.06,4.31,4.31,0,0,1,.44-1.31l-.11.07A7.28,7.28,0,0,0,128,12.41a9.12,9.12,0,0,0-1.11,2.3,5.89,5.89,0,0,1-1-.8,5.23,5.23,0,0,1-.81-1V6.77h-1.38l-1.34-1.33h10.15l1.34,1.33Z"/></g></g></svg>